<?xml version="1.0" encoding="UTF-8"?>
<svg version="1.1" xmlns="http://www.w3.org/2000/svg" width="180" height="180">
<path d="M0 0 C1.20398438 0.43570312 2.40796875 0.87140625 3.6484375 1.3203125 C27.00042116 10.59018888 44.06779968 28.18915903 54.17480469 50.98193359 C62.30355118 70.86128817 63.3544396 95.76387115 56 116 C55.34644531 117.80597656 55.34644531 117.80597656 54.6796875 119.6484375 C45.40981112 143.00042116 27.81084097 160.06779968 5.01806641 170.17480469 C-14.86128817 178.30355118 -39.76387115 179.3544396 -60 172 C-61.20398437 171.56429687 -62.40796875 171.12859375 -63.6484375 170.6796875 C-87.00042116 161.40981112 -104.06779968 143.81084097 -114.17480469 121.01806641 C-122.30355118 101.13871183 -123.3544396 76.23612885 -116 56 C-115.34644531 54.19402344 -115.34644531 54.19402344 -114.6796875 52.3515625 C-105.40981112 28.99957884 -87.81084097 11.93220032 -65.01806641 1.82519531 C-45.13871183 -6.30355118 -20.23612885 -7.3544396 0 0 Z " fill="#FCFCFB" transform="translate(120,4)"/>
<path d="M0 0 C7.1561994 5.87212329 11.74075712 14.39250242 13.75 23.375 C13.79482641 24.93626684 13.80652838 26.49870891 13.79150391 28.06054688 C13.78551178 28.86907104 13.77951965 29.67759521 13.77334595 30.51062012 C13.7617897 31.43348816 13.7617897 31.43348816 13.75 32.375 C12.63439697 32.36976318 11.51879395 32.36452637 10.36938477 32.35913086 C6.24520667 32.34108225 2.12103209 32.32956851 -2.00317383 32.32006836 C-3.79094021 32.31502782 -5.57870245 32.30819546 -7.36645508 32.29956055 C-9.93051168 32.2874827 -12.49451397 32.28176906 -15.05859375 32.27734375 C-15.8627623 32.27218246 -16.66693085 32.26702118 -17.49546814 32.26170349 C-19.41401715 32.26150785 -21.33245368 32.31298017 -23.25 32.375 C-24.90181693 34.02681693 -24.37741921 35.95713733 -24.37939453 38.23022461 C-24.38412277 39.78204689 -24.38412277 39.78204689 -24.38894653 41.36521912 C-24.3869223 42.49122025 -24.38489807 43.61722137 -24.3828125 44.77734375 C-24.38424759 46.49939781 -24.38424759 46.49939781 -24.38571167 48.25624084 C-24.38639374 50.68995213 -24.38453758 53.12366523 -24.38037109 55.55737305 C-24.37502811 59.29284743 -24.38031269 63.02820129 -24.38671875 66.76367188 C-24.38605788 69.1223961 -24.38477653 71.48112025 -24.3828125 73.83984375 C-24.38584885 75.5258091 -24.38584885 75.5258091 -24.38894653 77.24583435 C-24.38579437 78.2835347 -24.38264221 79.32123505 -24.37939453 80.39038086 C-24.37859894 81.30669785 -24.37780334 82.22301483 -24.37698364 83.167099 C-24.3934406 85.4173848 -24.3934406 85.4173848 -23.25 87.375 C-20.61 87.375 -17.97 87.375 -15.25 87.375 C-14.41628641 84.41991553 -14.07110466 81.67390387 -13.93359375 78.609375 C-13.89548584 77.80725586 -13.85737793 77.00513672 -13.81811523 76.17871094 C-13.77501221 75.17098633 -13.73190918 74.16326172 -13.6875 73.125 C-13.543125 69.9075 -13.39875 66.69 -13.25 63.375 C-6.32 63.375 0.61 63.375 7.75 63.375 C3.43389671 84.95551644 -12.37143801 105.75915999 -26.25 122.375 C-26.78254395 123.01969238 -27.31508789 123.66438477 -27.86376953 124.32861328 C-29.50420942 126.31027233 -31.15543215 128.28223193 -32.8125 130.25 C-33.32554688 130.86399658 -33.83859375 131.47799316 -34.3671875 132.1105957 C-35.61686127 133.57142561 -36.92827614 134.97902199 -38.25 136.375 C-40.25 136.375 -40.25 136.375 -42.57421875 134.1796875 C-43.45722656 133.25414062 -44.34023437 132.32859375 -45.25 131.375 C-50.482932 126.06523866 -55.72093219 120.86780953 -61.38671875 116.01953125 C-63.25451793 114.37101248 -65.00455624 112.65196419 -66.75 110.875 C-71.02783781 106.52910568 -75.61197623 102.55336811 -80.3125 98.671875 C-80.951875 98.14078125 -81.59125 97.6096875 -82.25 97.0625 C-83.11625 96.35673828 -83.11625 96.35673828 -84 95.63671875 C-85.25 94.375 -85.25 94.375 -85.25 92.375 C-85.889375 92.08625 -86.52875 91.7975 -87.1875 91.5 C-89.25 90.375 -89.25 90.375 -90.25 88.375 C-88.23177083 88.21223958 -86.21354167 88.04947917 -84.1953125 87.88671875 C-81.85480784 87.50106964 -81.85480784 87.50106964 -80.25 84.375 C-79.49077573 81.99480421 -78.78796735 79.59628138 -78.125 77.1875 C-77.94324219 76.53330078 -77.76148438 75.87910156 -77.57421875 75.20507812 C-77.12800956 73.59637657 -76.68835785 71.98585869 -76.25 70.375 C-71.63 70.375 -67.01 70.375 -62.25 70.375 C-61.816875 71.53 -61.38375 72.685 -60.9375 73.875 C-60.66292969 74.59945312 -60.38835937 75.32390625 -60.10546875 76.0703125 C-59.54568451 77.57840703 -59.00572476 79.0940461 -58.48828125 80.6171875 C-56.92477365 85.24707893 -56.92477365 85.24707893 -53.25 88.375 C-50.19729537 88.53311388 -50.19729537 88.53311388 -47.25 87.375 C-44.20057777 82.4990203 -43.10358385 77.28961967 -41.875 71.75 C-41.44803473 69.87858168 -41.01961034 68.00749575 -40.58984375 66.13671875 C-40.37183105 65.18458496 -40.15381836 64.23245117 -39.92919922 63.25146484 C-39.26380215 60.43345325 -38.55136012 57.63263957 -37.81640625 54.83203125 C-37.58550293 53.94660645 -37.35459961 53.06118164 -37.11669922 52.14892578 C-36.67638667 50.47219282 -36.22921105 48.79724119 -35.77392578 47.12451172 C-34.45686877 42.05686689 -34.04098085 37.61242269 -34.25 32.375 C-36.56 32.045 -38.87 31.715 -41.25 31.375 C-43.63607587 34.9541138 -44.3134127 38.40856791 -45.1953125 42.54296875 C-45.4574202 43.73518791 -45.4574202 43.73518791 -45.724823 44.95149231 C-46.28086457 47.48723064 -46.82803226 50.02479059 -47.375 52.5625 C-47.75071873 54.2833306 -48.12701395 56.00403543 -48.50390625 57.72460938 C-49.42596359 61.93997679 -50.34006777 66.15699936 -51.25 70.375 C-53.58477512 68.04022488 -53.83834801 66.73984553 -54.6171875 63.5703125 C-54.86106201 62.59924561 -55.10493652 61.62817871 -55.35620117 60.62768555 C-55.60990479 59.59554932 -55.8636084 58.56341309 -56.125 57.5 C-58.65916011 42.85987424 -58.65916011 42.85987424 -66.25 31.375 C-70.22653784 30.89688496 -70.22653784 30.89688496 -73.77734375 32.41796875 C-75.95664867 35.31407423 -76.80904516 38.56739742 -77.8125 42 C-78.03083496 42.72276123 -78.24916992 43.44552246 -78.47412109 44.19018555 C-79.75579047 48.4951437 -80.89346371 52.79833919 -81.78125 57.203125 C-82.73930396 61.64210835 -84.02440264 66.00370277 -85.25 70.375 C-87.46591564 67.05112654 -88.03833914 64.58175103 -88.90625 60.6953125 C-89.05404907 60.04553436 -89.20184814 59.39575623 -89.35412598 58.72628784 C-89.82532656 56.65214051 -90.28833502 54.57628891 -90.75 52.5 C-91.21239462 50.43103722 -91.67666427 48.36256388 -92.14587402 46.2951355 C-92.57248255 44.41408725 -92.99247067 42.53154117 -93.41210938 40.64892578 C-94.54551028 35.62232786 -94.54551028 35.62232786 -97.25 31.375 C-99.70809998 31.1249227 -99.70809998 31.1249227 -102.25 31.375 C-102.91 32.035 -103.57 32.695 -104.25 33.375 C-103.88741529 40.47028516 -102.21519781 47.14308741 -100.4375 54 C-100.03809204 55.5763623 -100.03809204 55.5763623 -99.63061523 57.18457031 C-98.4434408 61.84742236 -97.22899453 66.49988929 -95.9296875 71.1328125 C-95.64315308 72.16220947 -95.64315308 72.16220947 -95.35083008 73.21240234 C-94.84952569 74.99345385 -94.33354361 76.77035607 -93.81640625 78.546875 C-93.24572423 81.39634934 -93.45425745 82.66519362 -94.25 85.375 C-94.7126123 84.93744385 -95.17522461 84.4998877 -95.65185547 84.04907227 C-103.42018677 76.70631041 -111.18438363 69.37405164 -119.171875 62.26953125 C-121.80031455 59.87330346 -124.28667204 57.35418286 -126.77734375 54.81640625 C-128.48037635 53.14951227 -130.2797084 51.71479829 -132.25 50.375 C-128.9936538 42.84983885 -120.89724001 38.18167148 -114.25 33.8125 C-113.10591675 33.05767334 -113.10591675 33.05767334 -111.9387207 32.28759766 C-30.47397591 -20.77771085 -30.47397591 -20.77771085 0 0 Z " fill="#97D02E" transform="translate(151.25,24.625)"/>
<path d="M0 0 C7.26681576 5.96289116 11.50258062 14.34657387 13.75 23.375 C14.0277253 26.47029324 13.95423025 29.26048876 13.75 32.375 C13.09 32.045 12.43 31.715 11.75 31.375 C9.65884059 31.25836163 7.56762382 31.14262195 5.47607422 31.03320312 C-5.04355145 30.36107559 -5.04355145 30.36107559 -8.7734375 27.3125 C-10.68704236 24.40008675 -12.25 21.91806129 -12.25 18.375 C-13.735 17.88 -13.735 17.88 -15.25 17.375 C-15.25 16.715 -15.25 16.055 -15.25 15.375 C-16.9130584 14.69938252 -18.58094605 14.03566719 -20.25 13.375 C-21.3225 12.83875 -22.395 12.3025 -23.5 11.75 C-36.09244184 7.15163641 -50.82748493 11.04669155 -63.25 14.375 C-64.21808594 14.62507813 -65.18617187 14.87515625 -66.18359375 15.1328125 C-76.9135012 18.12001873 -87.6215518 22.80063525 -97.25 28.375 C-97.745 29.365 -97.745 29.365 -98.25 30.375 C-99.90204456 31.07711894 -101.56923769 31.74471413 -103.25 32.375 C-103.58 32.705 -103.91 33.035 -104.25 33.375 C-103.76557383 40.47509703 -102.2196804 47.12579722 -100.4375 54 C-100.03809204 55.5763623 -100.03809204 55.5763623 -99.63061523 57.18457031 C-98.4434408 61.84742236 -97.22899453 66.49988929 -95.9296875 71.1328125 C-95.64315308 72.16220947 -95.64315308 72.16220947 -95.35083008 73.21240234 C-94.84952569 74.99345385 -94.33354361 76.77035607 -93.81640625 78.546875 C-93.24572423 81.39634934 -93.45425745 82.66519362 -94.25 85.375 C-94.7126123 84.93744385 -95.17522461 84.4998877 -95.65185547 84.04907227 C-103.42018677 76.70631041 -111.18438363 69.37405164 -119.171875 62.26953125 C-121.80031455 59.87330346 -124.28667204 57.35418286 -126.77734375 54.81640625 C-128.48037635 53.14951227 -130.2797084 51.71479829 -132.25 50.375 C-128.9936538 42.84983885 -120.89724001 38.18167148 -114.25 33.8125 C-113.10591675 33.05767334 -113.10591675 33.05767334 -111.9387207 32.28759766 C-30.47397591 -20.77771085 -30.47397591 -20.77771085 0 0 Z " fill="#8FCA29" transform="translate(151.25,24.625)"/>
<path d="M0 0 C0.66 0.33 1.32 0.66 2 1 C1.50628906 1.32613281 1.01257813 1.65226562 0.50390625 1.98828125 C-0.45708984 2.64376953 -0.45708984 2.64376953 -1.4375 3.3125 C-2.39462891 3.95638672 -2.39462891 3.95638672 -3.37109375 4.61328125 C-5.2885684 6.0034052 -5.2885684 6.0034052 -6 9 C-7.31647119 9.69937532 -8.65022151 10.36729133 -10 11 C-10.33 11.66 -10.66 12.32 -11 13 C-12.65204456 13.70211894 -14.31923769 14.36971413 -16 15 C-16.33 15.33 -16.66 15.66 -17 16 C-16.51557383 23.10009703 -14.9696804 29.75079722 -13.1875 36.625 C-12.78809204 38.2013623 -12.78809204 38.2013623 -12.38061523 39.80957031 C-11.1934408 44.47242236 -9.97899453 49.12488929 -8.6796875 53.7578125 C-8.39315308 54.78720947 -8.39315308 54.78720947 -8.10083008 55.83740234 C-7.59952569 57.61845385 -7.08354361 59.39535607 -6.56640625 61.171875 C-5.99572423 64.02134934 -6.20425745 65.29019362 -7 68 C-7.4626123 67.56244385 -7.92522461 67.1248877 -8.40185547 66.67407227 C-16.17018677 59.33131041 -23.93438363 51.99905164 -31.921875 44.89453125 C-34.55031455 42.49830346 -37.03667204 39.97918286 -39.52734375 37.44140625 C-41.23037635 35.77451227 -43.0297084 34.33979829 -45 33 C-41.66902006 25.31514076 -33.3486258 20.62731073 -26.5625 16.1875 C-25.79550781 15.6819458 -25.02851562 15.1763916 -24.23828125 14.65551758 C-18.72651412 11.05474405 -13.14861275 7.56937519 -7.5 4.1875 C-6.77627197 3.74881592 -6.05254395 3.31013184 -5.30688477 2.8581543 C-3.57457424 1.84031486 -1.79107591 0.91046359 0 0 Z " fill="#42BA45" transform="translate(64,42)"/>
<path d="M0 0 C3.14028993 1.43109153 5.3700078 2.88190282 7.7421875 5.40234375 C9.66694415 10.93601911 9.48498482 16.23465112 7.4921875 21.71484375 C4.99958689 25.36472322 2.9124447 26.88725802 -1.2578125 28.27734375 C-11.12616236 29.4171093 -11.12616236 29.4171093 -15.56640625 27.04296875 C-19.2219831 23.9725882 -20.95241236 21.70508155 -21.56640625 16.82421875 C-21.80015262 11.75263085 -21.86099748 8.22684089 -18.5078125 4.21484375 C-13.30878006 -1.154864 -7.07582248 -2.26475287 0 0 Z " fill="#69C133" transform="translate(48.2578125,21.72265625)"/>
<path d="M0 0 C0.42765417 6.41481258 -1.14256832 11.88595404 -3 18 C-3.66 17.67 -4.32 17.34 -5 17 C-6.73868744 16.84733388 -8.48247501 16.75067404 -10.2265625 16.68359375 C-11.2578125 16.64169922 -12.2890625 16.59980469 -13.3515625 16.55664062 C-14.43179688 16.51732422 -15.51203125 16.47800781 -16.625 16.4375 C-17.71296875 16.39431641 -18.8009375 16.35113281 -19.921875 16.30664062 C-22.6144257 16.20035573 -25.30719576 16.09965496 -28 16 C-28 11.05 -28 6.1 -28 1 C-23.52084148 0.83311186 -19.04167374 0.66647858 -14.5625 0.5 C-13.28310547 0.45230469 -12.00371094 0.40460937 -10.68554688 0.35546875 C-9.47060547 0.31035156 -8.25566406 0.26523437 -7.00390625 0.21875 C-5.87799072 0.17685547 -4.7520752 0.13496094 -3.59204102 0.09179688 C-1 0 -1 0 0 0 Z " fill="#ADD11E" transform="translate(165,63)"/>
<path d="M0 0 C6.93 0 13.86 0 21 0 C19.91494604 5.42526981 18.04928626 9.66705519 15.6875 14.625 C15.25324707 15.53983154 14.81899414 16.45466309 14.37158203 17.3972168 C9.66158197 27.07075556 3.97133244 36.0646478 -2 45 C-2.99 44.34 -3.98 43.68 -5 43 C-3.64883008 39.54769888 -2.18471467 36.1753243 -0.625 32.8125 C0.25296531 30.8763419 1.12803613 28.9388683 2 27 C2.35449219 26.21625 2.70898438 25.4325 3.07421875 24.625 C6.32954156 17.00780195 8.12411652 9.04235153 10 1 C7.36 1.33 4.72 1.66 2 2 C1.98541748 2.55985596 1.97083496 3.11971191 1.95581055 3.6965332 C1.88128648 6.23588137 1.78464419 8.77392078 1.6875 11.3125 C1.66494141 12.19357422 1.64238281 13.07464844 1.61914062 13.98242188 C1.58369141 14.82998047 1.54824219 15.67753906 1.51171875 16.55078125 C1.48553467 17.33106689 1.45935059 18.11135254 1.43237305 18.9152832 C0.9068329 21.44921166 -0.0408526 22.36927777 -2 24 C-1.84152588 23.43829102 -1.68305176 22.87658203 -1.51977539 22.29785156 C-0.97811638 19.90325571 -0.79358526 17.68561447 -0.68359375 15.234375 C-0.64548584 14.43225586 -0.60737793 13.63013672 -0.56811523 12.80371094 C-0.52501221 11.79598633 -0.48190918 10.78826172 -0.4375 9.75 C-0.293125 6.5325 -0.14875 3.315 0 0 Z " fill="#A9D121" transform="translate(138,88)"/>
<path d="M0 0 C0 8.91 0 17.82 0 27 C-4 28 -4 28 -5.88671875 26.890625 C-6.48097656 26.34921875 -7.07523438 25.8078125 -7.6875 25.25 C-8.28949219 24.71890625 -8.89148438 24.1878125 -9.51171875 23.640625 C-12.76542936 20.0538574 -12.44404843 15.39583767 -12.42578125 10.8046875 C-11.75229019 6.36829688 -9.39194598 3.79440109 -6 1 C-4 0 -4 0 0 0 Z " fill="#52BC3D" transform="translate(39,22)"/>
<path d="M0 0 C8.58 0 17.16 0 26 0 C26 0.33 26 0.66 26 1 C21.38 1 16.76 1 12 1 C12.33 1.99 12.66 2.98 13 4 C13.13281695 7.67106043 13.04323297 11.32519714 13 15 C8.71 15 4.42 15 0 15 C0 10.05 0 5.1 0 0 Z " fill="#CFE130" transform="translate(137,64)"/>
<path d="M0 0 C7.34210526 3.67105263 7.34210526 3.67105263 9 8 C9.71389536 13.92929755 9.54655076 18.985911 6 24 C4.35 24.99 2.7 25.98 1 27 C0.67 18.09 0.34 9.18 0 0 Z " fill="#9FCE26" transform="translate(48,22)"/>
<path d="M0 0 C1.32 0.33 2.64 0.66 4 1 C5.3308911 3.66178221 5.11268993 5.68739396 5.09765625 8.6640625 C5.09443359 9.78554688 5.09121094 10.90703125 5.08789062 12.0625 C5.07951172 13.238125 5.07113281 14.41375 5.0625 15.625 C5.05798828 16.80835937 5.05347656 17.99171875 5.04882812 19.2109375 C5.03701467 22.14067507 5.02054258 25.07031272 5 28 C4.01 28.33 3.02 28.66 2 29 C1.34 28.67 0.68 28.34 0 28 C0 18.76 0 9.52 0 0 Z " fill="#81C72C" transform="translate(44,21)"/>
<path d="M0 0 C0 7.92 0 15.84 0 24 C-4.33619015 21.83190492 -5.22341957 21.35262204 -7 17 C-7.62772216 12.52406808 -8.06521348 8.0673032 -5.9453125 3.953125 C-2.7639881 0 -2.7639881 0 0 0 Z " fill="#37B645" transform="translate(34,24)"/>
<path d="M0 0 C2.11044382 3.16566573 2.75552077 5.51197415 3.625 9.1875 C3.88539062 10.27417969 4.14578125 11.36085938 4.4140625 12.48046875 C4.60742188 13.31191406 4.80078125 14.14335938 5 15 C2.03 15 -0.94 15 -4 15 C-3.43179252 9.54520815 -2.05362055 5.08940744 0 0 Z " fill="#85CD43" transform="translate(82,71)"/>
<path d="M0 0 C0.8971875 0.309375 0.8971875 0.309375 1.8125 0.625 C-1.57417214 3.35893365 -4.49049738 5.55769678 -8.9453125 5.734375 C-11.3932099 5.46936047 -13.77699044 5.12389645 -16.1875 4.625 C-16.1875 4.295 -16.1875 3.965 -16.1875 3.625 C-15.42824219 3.50382812 -14.66898438 3.38265625 -13.88671875 3.2578125 C-12.39591797 3.00644531 -12.39591797 3.00644531 -10.875 2.75 C-9.88886719 2.58757813 -8.90273438 2.42515625 -7.88671875 2.2578125 C-4.74508523 1.52127903 -3.19735714 -0.54811837 0 0 Z " fill="#DBEFD1" transform="translate(55.1875,46.375)"/>
<path d="M0 0 C5.40049736 0.31767632 7.52337065 3.19996327 11 7 C10.67 7.99 10.34 8.98 10 10 C8.9171875 8.63875 8.9171875 8.63875 7.8125 7.25 C5.47347206 4.4298006 2.94933345 2.19093342 0 0 Z " fill="#F5F9EB" transform="translate(147,22)"/>
</svg>
